<svg width="7" height="8" viewBox="0 0 7 8" fill="none" xmlns="http://www.w3.org/2000/svg">
<path d="M5.75 0.5C5.47152 0.5 5.20445 0.610625 5.00754 0.807538C4.81062 1.00445 4.7 1.27152 4.7 1.55C4.70021 1.61585 4.70662 1.68154 4.71914 1.74619L2.22881 3.19883C2.03913 3.03815 1.79859 2.94997 1.55 2.95C1.27152 2.95 1.00445 3.06062 0.807538 3.25754C0.610625 3.45445 0.5 3.72152 0.5 4C0.5 4.27848 0.610625 4.54555 0.807538 4.74246C1.00445 4.93938 1.27152 5.05 1.55 5.05C1.79821 5.04951 2.03822 4.96111 2.22744 4.80049L4.71914 6.25381C4.70662 6.31846 4.70021 6.38415 4.7 6.45C4.7 6.72848 4.81062 6.99555 5.00754 7.19246C5.20445 7.38938 5.47152 7.5 5.75 7.5C6.02848 7.5 6.29555 7.38938 6.49246 7.19246C6.68938 6.99555 6.8 6.72848 6.8 6.45C6.8 6.17152 6.68938 5.90445 6.49246 5.70754C6.29555 5.51062 6.02848 5.4 5.75 5.4C5.50156 5.40033 5.26128 5.48873 5.07188 5.64951L2.58086 4.19619C2.59338 4.13154 2.59979 4.06585 2.6 4C2.59979 3.93415 2.59338 3.86846 2.58086 3.80381L5.07119 2.35117C5.26087 2.51185 5.50141 2.60003 5.75 2.6C6.02848 2.6 6.29555 2.48938 6.49246 2.29246C6.68938 2.09555 6.8 1.82848 6.8 1.55C6.8 1.27152 6.68938 1.00445 6.49246 0.807538C6.29555 0.610625 6.02848 0.5 5.75 0.5Z" fill="white"/>
</svg>
