<svg width="10" height="9" viewBox="0 0 10 9" fill="none" xmlns="http://www.w3.org/2000/svg">
<path d="M9.162 4.338C9.338 4.461 9.5 4.583 9.5 5.012C9.5 5.442 9.271 5.616 9.026 5.737C9.1261 5.90028 9.1581 6.09637 9.115 6.283C9.038 6.627 8.723 6.894 8.443 6.973C8.564 7.167 8.602 7.358 8.458 7.593C8.273 7.888 8.112 8 7.4 8H4.5C3.512 8 3 7.454 3 7V4.665C3 3.435 4.467 2.39 4.467 1.535L4.361 0.47C4.356 0.405 4.369 0.246 4.419 0.2C4.499 0.121 4.72 0 5.054 0C5.272 0 5.417 0.0409999 5.588 0.123C6.169 0.4 6.32 1.101 6.32 1.665C6.32 1.936 5.906 2.748 5.85 3.029C5.85 3.029 6.717 2.837 7.729 2.83C8.79 2.824 9.478 3.02 9.478 3.672C9.478 3.933 9.259 4.195 9.162 4.338ZM0.6 4H1.4C1.55913 4 1.71174 4.06321 1.82426 4.17574C1.93679 4.28826 2 4.44087 2 4.6V8.4C2 8.5591 1.93679 8.7117 1.82426 8.8243C1.71174 8.9368 1.55913 9 1.4 9H0.6C0.44087 9 0.28826 8.9368 0.17574 8.8243C0.06321 8.7117 0 8.5591 0 8.4V4.6C0 4.44087 0.06321 4.28826 0.17574 4.17574C0.28826 4.06321 0.44087 4 0.6 4Z" fill="white"/>
</svg>
